<svg width="1440" height="1024" viewBox="0 0 1440 1024" fill="none" xmlns="http://www.w3.org/2000/svg">
<g clip-path="url(#clip0_184_1314)">
<rect width="1440" height="1024" fill="white"/>
<rect y="-185" width="1440" height="611" fill="#CBD5E1"/>
<ellipse cx="719.5" cy="580" rx="494.5" ry="286" fill="white"/>
<ellipse cx="719.5" cy="620" rx="494.5" ry="286" fill="white"/>
<rect x="288" y="310" width="26" height="141" fill="white"/>
<rect x="390" y="253" width="26" height="141" fill="white"/>
<path d="M390.043 304.116L395.35 316.754L383.271 317.583L369.852 321.508L357.795 325.604C357.795 325.604 350.615 328.306 346.097 330.239C341.747 332.099 335.091 335.289 335.091 335.289L321.094 341.987C314.733 346.982 311.167 349.782 304.805 354.776L299.498 342.139L390.043 304.116Z" fill="white"/>
<path d="M480.544 261L485.851 273.637L473.773 274.467L460.354 278.392L448.297 282.488C448.297 282.488 441.117 285.189 436.598 287.122C432.249 288.983 425.593 292.173 425.593 292.173L411.596 298.871C405.235 303.865 401.668 306.665 395.307 311.659L390 299.022L480.544 261Z" fill="white"/>
<path d="M594.719 236.148L596.502 249.738L584.633 247.35L570.654 247.593L557.943 248.362C557.943 248.362 550.305 249.072 545.436 249.744C540.75 250.39 533.488 251.71 533.488 251.71L518.22 254.476C510.766 257.614 506.586 259.373 499.132 262.511L497.35 248.921L594.719 236.148Z" fill="white"/>
<path d="M695.125 227L695.674 240.695L684.069 237.246L670.125 236.227L657.397 235.845C657.397 235.845 649.725 235.863 644.816 236.093C640.091 236.314 632.739 236.973 632.739 236.973L617.284 238.35C609.577 240.802 605.256 242.177 597.549 244.629L597 230.934L695.125 227Z" fill="white"/>
<path d="M815.394 227.433L815.194 241.137L803.795 237.059L789.927 235.28L777.238 234.203C777.238 234.203 769.578 233.802 764.663 233.763C759.933 233.726 752.556 233.982 752.556 233.982L737.048 234.513C729.219 236.54 724.829 237.677 717 239.705L717.2 226L815.394 227.433Z" fill="white"/>
<path d="M932.155 248.753L930.236 262.324L919.439 256.846L905.904 253.339L893.452 250.678C893.452 250.678 885.902 249.318 881.031 248.662C876.343 248.031 868.993 247.359 868.993 247.359L853.541 245.938C845.519 246.966 841.022 247.543 833 248.571L834.919 235L932.155 248.753Z" fill="white"/>
<path d="M1039.86 289.067L1035.8 302.159L1026.02 295.031L1013.21 289.413L1001.34 284.802C1001.34 284.802 994.108 282.257 989.404 280.834C984.876 279.463 977.727 277.629 977.727 277.629L962.699 273.765C954.615 273.502 950.083 273.355 942 273.092L946.057 260L1039.86 289.067Z" fill="white"/>
<path d="M1137.72 344.251L1131.94 356.679L1123.2 348.301L1111.27 341.013L1100.13 334.848C1100.13 334.848 1093.3 331.353 1088.83 329.31C1084.53 327.344 1077.69 324.566 1077.69 324.566L1063.32 318.716C1055.34 317.369 1050.87 316.614 1042.9 315.268L1048.68 302.84L1137.72 344.251Z" fill="white"/>
<rect x="478" y="218" width="26" height="141" fill="white"/>
<rect x="582" y="203" width="26" height="141" fill="white"/>
<rect x="694" y="191" width="26" height="141" fill="white"/>
<rect x="812" y="203" width="26" height="141" fill="white"/>
<rect x="925" y="218" width="26" height="141" fill="white"/>
<rect x="1027" y="239" width="26" height="141" fill="white"/>
<rect x="1128" y="285" width="26" height="141" fill="white"/>
<ellipse cx="301" cy="311.5" rx="13" ry="9.5" fill="white"/>
<ellipse cx="403" cy="253.5" rx="13" ry="9.5" fill="white"/>
<ellipse cx="491" cy="217.5" rx="13" ry="9.5" fill="white"/>
<ellipse cx="595" cy="200.5" rx="13" ry="9.5" fill="white"/>
<ellipse cx="707" cy="190.5" rx="13" ry="9.5" fill="white"/>
<ellipse cx="825" cy="200.5" rx="13" ry="9.5" fill="white"/>
<ellipse cx="938" cy="217.5" rx="13" ry="9.5" fill="white"/>
<ellipse cx="1040" cy="237.5" rx="13" ry="9.5" fill="white"/>
<ellipse cx="1141" cy="284.5" rx="13" ry="9.5" fill="white"/>
</g>
<defs>
<clipPath id="clip0_184_1314">
<rect width="1440" height="1024" fill="white"/>
</clipPath>
</defs>
</svg>
