<svg width="1440" height="1024" viewBox="0 0 1440 1024" fill="none" xmlns="http://www.w3.org/2000/svg">
<g clip-path="url(#clip0_184_1314)">
<rect width="1440" height="1024" fill="white"/>
<rect y="-18" width="1440" height="611" fill="#CBD5E1"/>
<ellipse cx="719.5" cy="747" rx="494.5" ry="286" fill="white"/>
<ellipse cx="719.5" cy="787" rx="494.5" ry="286" fill="white"/>
<rect x="288" y="477" width="26" height="141" fill="white"/>
<rect x="390" y="420" width="26" height="141" fill="white"/>
<path d="M390.043 471.116L395.35 483.754L383.271 484.583L369.852 488.508L357.795 492.604C357.795 492.604 350.615 495.306 346.097 497.239C341.747 499.099 335.091 502.289 335.091 502.289L321.094 508.987C314.733 513.982 311.167 516.782 304.805 521.776L299.498 509.139L390.043 471.116Z" fill="white"/>
<path d="M480.544 428L485.851 440.637L473.773 441.467L460.354 445.392L448.297 449.488C448.297 449.488 441.117 452.189 436.598 454.122C432.249 455.983 425.593 459.173 425.593 459.173L411.596 465.871C405.235 470.865 401.668 473.665 395.307 478.659L390 466.022L480.544 428Z" fill="white"/>
<path d="M594.719 403.148L596.502 416.738L584.633 414.35L570.654 414.593L557.943 415.362C557.943 415.362 550.305 416.072 545.436 416.744C540.75 417.39 533.488 418.71 533.488 418.71L518.22 421.476C510.766 424.614 506.586 426.373 499.132 429.511L497.35 415.921L594.719 403.148Z" fill="white"/>
<path d="M695.125 394L695.674 407.695L684.069 404.246L670.125 403.227L657.397 402.845C657.397 402.845 649.725 402.863 644.816 403.093C640.091 403.314 632.739 403.973 632.739 403.973L617.284 405.35C609.577 407.802 605.256 409.177 597.549 411.629L597 397.934L695.125 394Z" fill="white"/>
<path d="M815.394 394.433L815.194 408.137L803.795 404.059L789.927 402.28L777.238 401.203C777.238 401.203 769.578 400.802 764.663 400.763C759.933 400.726 752.556 400.982 752.556 400.982L737.048 401.513C729.219 403.54 724.829 404.677 717 406.705L717.2 393L815.394 394.433Z" fill="white"/>
<path d="M932.155 415.753L930.236 429.324L919.439 423.846L905.904 420.339L893.452 417.678C893.452 417.678 885.902 416.318 881.031 415.662C876.343 415.031 868.993 414.359 868.993 414.359L853.541 412.938C845.519 413.966 841.022 414.543 833 415.571L834.919 402L932.155 415.753Z" fill="white"/>
<path d="M1039.86 456.067L1035.8 469.159L1026.02 462.031L1013.21 456.413L1001.34 451.802C1001.34 451.802 994.108 449.257 989.404 447.834C984.876 446.463 977.727 444.629 977.727 444.629L962.699 440.765C954.615 440.502 950.083 440.355 942 440.092L946.057 427L1039.86 456.067Z" fill="white"/>
<path d="M1137.72 511.251L1131.94 523.679L1123.2 515.301L1111.27 508.013L1100.13 501.848C1100.13 501.848 1093.3 498.353 1088.83 496.31C1084.53 494.344 1077.69 491.566 1077.69 491.566L1063.32 485.716C1055.34 484.369 1050.87 483.614 1042.9 482.268L1048.68 469.84L1137.72 511.251Z" fill="white"/>
<rect x="478" y="385" width="26" height="141" fill="white"/>
<rect x="582" y="370" width="26" height="141" fill="white"/>
<rect x="694" y="358" width="26" height="141" fill="white"/>
<rect x="812" y="370" width="26" height="141" fill="white"/>
<rect x="925" y="385" width="26" height="141" fill="white"/>
<rect x="1027" y="406" width="26" height="141" fill="white"/>
<rect x="1128" y="452" width="26" height="141" fill="white"/>
<ellipse cx="301" cy="478.5" rx="13" ry="9.5" fill="white"/>
<ellipse cx="403" cy="420.5" rx="13" ry="9.5" fill="white"/>
<ellipse cx="491" cy="384.5" rx="13" ry="9.5" fill="white"/>
<ellipse cx="595" cy="367.5" rx="13" ry="9.5" fill="white"/>
<ellipse cx="707" cy="357.5" rx="13" ry="9.5" fill="white"/>
<ellipse cx="825" cy="367.5" rx="13" ry="9.5" fill="white"/>
<ellipse cx="938" cy="384.5" rx="13" ry="9.5" fill="white"/>
<ellipse cx="1040" cy="404.5" rx="13" ry="9.5" fill="white"/>
<ellipse cx="1141" cy="451.5" rx="13" ry="9.5" fill="white"/>
</g>
<defs>
<clipPath id="clip0_184_1314">
<rect width="1440" height="1024" fill="white"/>
</clipPath>
</defs>
</svg>
